<svg x="0" y="0" width="598" height="299" viewBox="0 0 1046.5 523.25" xmlns="http://www.w3.org/2000/svg" xmlns:xlink="http://www.w3.org/1999/xlink" xmlns:fi="http://pattern.flaticon.com/"><rect x="0px" y="0px" width="100%" height="100%" opacity="1" fill="#ffffff"/><defs><g transform="matrix(0.1171877309679985 0 0 0.1171877309679985 116 28.000001907348633)" id="L1_216"><path d="M372.29,50.758H28.831C12.933,50.758,0,63.691,0,79.588v206.056c0,15.897,12.933,28.831,28.831,28.831h22.271v76.71    c0,4.884,2.942,9.289,7.456,11.159c1.494,0.62,3.064,0.92,4.62,0.92c3.144,0,6.232-1.228,8.543-3.538l85.251-85.25h17.104    c6.671,0,12.078-5.407,12.078-12.078c0-6.672-5.409-12.079-12.078-12.079c0,0-22.69,0.016-22.927,0.04    c-2.812,0.191-5.572,1.349-7.722,3.498l-68.169,68.169c0,0-0.021-60.392-0.06-60.705c-0.545-6.166-5.717-11.002-12.024-11.002    H28.831c-2.578,0-4.674-2.097-4.674-4.674V79.588c0-2.578,2.097-4.674,4.674-4.674H372.29c2.578,0,4.674,2.097,4.674,4.674v79.055    c0,6.671,5.409,12.078,12.078,12.078s12.078-5.407,12.078-12.078V79.588C401.12,63.691,388.187,50.758,372.29,50.758z"/><path d="M483.169,198.492H242.754c-15.897,0-28.831,12.933-28.831,28.831v140.57c0,15.897,12.933,28.831,28.831,28.831h150.514    l60.98,60.98c2.311,2.311,5.4,3.538,8.543,3.538c1.556,0,3.126-0.301,4.62-0.92c4.512-1.87,7.456-6.273,7.456-11.159v-52.44h8.301    c15.897,0,28.831-12.933,28.831-28.831V227.322C512,211.425,499.067,198.492,483.169,198.492z M487.844,367.893    c0,2.577-2.097,4.674-4.674,4.674h-20.376c-6.356,0-11.554,4.912-12.031,11.147c-0.031,0.264-0.051,36.29-0.051,36.29    l-43.854-43.855c-0.046-0.046-0.094-0.089-0.14-0.135c-0.172-0.168-0.335-0.314-0.489-0.445c-2.126-1.864-4.903-3.003-7.951-3.003    H242.754c-2.578,0-4.674-2.097-4.674-4.674v-140.57c0-2.578,2.097-4.674,4.674-4.674h240.416c2.577,0,4.674,2.097,4.674,4.674    V367.893z"/><path d="M362.964,285.53c-6.667,0-12.078,5.411-12.078,12.078c0,6.667,5.411,12.078,12.078,12.078    c6.668,0,12.078-5.411,12.078-12.078C375.042,290.941,369.631,285.53,362.964,285.53z"/><path d="M310.472,130.611c0,0-219.822,0-219.822,0c-6.67,0-12.078,5.407-12.078,12.078s5.409,12.078,12.078,12.078h219.822    c6.67,0,12.078-5.407,12.078-12.078S317.142,130.611,310.472,130.611z"/><path d="M174.075,210.465H90.65c-6.67,0-12.078,5.407-12.078,12.078c0,6.671,5.409,12.078,12.078,12.078h83.425    c6.671,0,12.078-5.407,12.078-12.078S180.745,210.465,174.075,210.465z"/><path d="M306.837,285.53c-6.666,0-12.078,5.411-12.078,12.078c0,6.667,5.412,12.078,12.078,12.078    c6.668,0,12.078-5.411,12.078-12.078C318.915,290.941,313.505,285.53,306.837,285.53z"/><path d="M419.079,285.53c-6.667,0-12.078,5.411-12.078,12.078c0,6.667,5.411,12.078,12.078,12.078    c6.668,0,12.078-5.411,12.078-12.078C431.157,290.941,425.746,285.53,419.079,285.53z"/></g><g transform="matrix(0.1171875 0 0 0.1171875 34 95.99998474121094)" id="L1_217"><path d="m393.926 237.559c0-93.502-98.562-154.79-196.963-154.79-98.794 0-196.963 61.576-196.963 154.79 0 35.265 15.445 69.75 43.491 97.104 1.073 1.047 1.484 2.636 1.072 4.146-8.809 32.271-29.673 61.423-38.234 72.459-2.663 3.433-3.101 7.973-1.142 11.85 1.915 3.791 5.701 6.113 9.931 6.113.096 0 .191-.001.287-.003 41.893-1.045 90.452-12.869 120.468-42.379 1.049-1.032 2.554-1.44 4.028-1.089 18.442 4.374 37.641 6.591 57.062 6.591 98.765-.002 196.963-61.553 196.963-154.792zm-250.564 133.604c-6.521-1.549-13.254.317-18.005 4.988-30.017 29.513-79.032 36.222-102.235 37.713 10.599-14.631 27.832-41.502 35.912-71.106 1.847-6.766-.096-13.982-5.07-18.834-25.49-24.861-38.964-54.726-38.964-86.365 0-77.08 81.628-139.79 181.963-139.79s181.963 62.709 181.963 139.79-81.628 139.79-181.963 139.79c-18.257 0-36.29-2.082-53.601-6.186z"/><path d="m442.165 362.18c43.729-22.099 69.835-59.764 69.835-100.754 0-57.931-52.367-107.431-124.518-117.702-4.095-.582-7.898 2.267-8.481 6.368-.584 4.101 2.267 7.898 6.368 8.482 64.684 9.208 111.631 52.463 111.631 102.852 0 35.212-23.028 67.873-61.601 87.367-7.5 3.791-11.519 12.171-9.772 20.381 3.657 17.185 11.442 33.098 17.669 43.884-44.291-7.372-61.078-28.624-66.386-37.822-3.277-5.678-9.405-9.198-16.018-9.198-.02 0-.039 0-.058 0l-.55.001c-8.317 0-16.645-.577-24.75-1.716-4.091-.575-7.894 2.282-8.47 6.384s2.282 7.894 6.384 8.47c8.794 1.235 17.823 1.861 26.836 1.861l.61-.001h.011c1.255 0 2.407.649 3.012 1.696 20.313 35.203 67.008 44.191 86.141 46.421 4.226.492 8.252-1.439 10.507-5.05 2.249-3.603 2.221-8.063-.075-11.64-5.763-8.976-16.048-26.94-20.191-46.412-.331-1.556.436-3.149 1.866-3.872z"/><path d="m80.258 210.733c-14.333 0-25.993 11.661-25.993 25.993s11.66 25.993 25.993 25.993 25.993-11.661 25.993-25.993-11.66-25.993-25.993-25.993zm0 36.987c-6.062 0-10.993-4.932-10.993-10.993s4.932-10.993 10.993-10.993 10.993 4.932 10.993 10.993-4.932 10.993-10.993 10.993z"/><path d="m154.411 210.733c-14.333 0-25.993 11.661-25.993 25.993s11.66 25.993 25.993 25.993 25.993-11.661 25.993-25.993-11.66-25.993-25.993-25.993zm0 36.987c-6.062 0-10.993-4.932-10.993-10.993s4.932-10.993 10.993-10.993 10.993 4.932 10.993 10.993-4.931 10.993-10.993 10.993z"/><path d="m228.563 210.733c-14.333 0-25.993 11.661-25.993 25.993s11.66 25.993 25.993 25.993 25.993-11.661 25.993-25.993-11.66-25.993-25.993-25.993zm0 36.987c-6.062 0-10.993-4.932-10.993-10.993s4.932-10.993 10.993-10.993 10.993 4.932 10.993 10.993-4.931 10.993-10.993 10.993z"/><path d="m302.717 210.733c-14.333 0-25.993 11.661-25.993 25.993s11.66 25.993 25.993 25.993 25.993-11.661 25.993-25.993-11.66-25.993-25.993-25.993zm0 36.987c-6.062 0-10.993-4.932-10.993-10.993s4.932-10.993 10.993-10.993 10.993 4.932 10.993 10.993-4.932 10.993-10.993 10.993z"/></g><path d="M51.353,0.914c-0.295-0.305-0.75-0.39-1.135-0.213L0.583,23.481c-0.399,0.184-0.632,0.605-0.574,1.041  s0.393,0.782,0.826,0.854l22.263,3.731l2.545,21.038c0.054,0.438,0.389,0.791,0.824,0.865c0.057,0.01,0.113,0.015,0.169,0.015  c0.375,0,0.726-0.211,0.896-0.556l24-48.415C51.72,1.675,51.648,1.218,51.353,0.914z M27.226,46.582l-2.232-18.457  c-0.054-0.44-0.391-0.793-0.828-0.866L4.374,23.941L48.485,3.697L27.226,46.582z" transform="matrix(1.1619800329208374 0 0 1.1619800329208374 76 243.0000762939453)" id="L1_219" fill="#193441"/><path d="m511.658 51.675c2.496-11.619-8.895-21.416-20.007-17.176l-482 184c-5.801 2.215-9.638 7.775-9.65 13.984-.012 6.21 3.803 11.785 9.596 14.022l135.403 52.295v164.713c0 6.948 4.771 12.986 11.531 14.593 6.715 1.597 13.717-1.598 16.865-7.843l56.001-111.128 136.664 101.423c8.313 6.17 20.262 2.246 23.287-7.669 127.599-418.357 122.083-400.163 122.31-401.214zm-118.981 52.718-234.803 167.219-101.028-39.018zm-217.677 191.852 204.668-145.757c-176.114 185.79-166.916 176.011-167.684 177.045-1.141 1.535 1.985-4.448-36.984 72.882zm191.858 127.546-120.296-89.276 217.511-229.462z" transform="matrix(0.11718635261058807 0 0 0.11718635261058807 270 268)" id="L1_220"/><g transform="matrix(-0.1630789339542389 0 0 0.1630789339542389 330.8499755859375 55.000003814697266)" id="L1_222"><path d="M367.851,6.944c-0.056-0.424-0.12-0.832-0.248-1.248c-0.136-0.456-0.32-0.872-0.528-1.296     c-0.112-0.232-0.152-0.48-0.288-0.704c-0.088-0.144-0.232-0.24-0.336-0.376c-0.264-0.368-0.576-0.688-0.904-1.016     c-0.328-0.328-0.656-0.632-1.032-0.896c-0.136-0.096-0.224-0.232-0.36-0.312c-0.224-0.136-0.472-0.168-0.704-0.28     c-0.44-0.216-0.872-0.4-1.336-0.536c-0.392-0.104-0.776-0.16-1.176-0.208c-0.472-0.056-0.928-0.088-1.4-0.064     c-0.44,0.024-0.864,0.112-1.296,0.216c-0.272,0.064-0.552,0.04-0.824,0.136l-352,120c-3.184,1.072-5.352,4.04-5.416,7.408     c-0.064,3.368,1.984,6.416,5.136,7.624l164.456,63.192l71.064,164.512c1.272,2.936,4.168,4.824,7.344,4.824     c0.136,0,0.264,0,0.4-0.008c3.336-0.168,6.208-2.384,7.224-5.56l112-352c0.08-0.248,0.056-0.504,0.104-0.76     c0.096-0.448,0.168-0.88,0.184-1.336C367.931,7.808,367.907,7.384,367.851,6.944z M31.475,128.368L330.011,26.592     L173.619,182.984L31.475,128.368z M246.859,337.112l-61.76-142.976L342.403,36.824L246.859,337.112z"/><path d="M125.659,242.264c-3.128-3.128-8.184-3.128-11.312,0l-112,112c-3.128,3.128-3.128,8.184,0,11.312     c1.56,1.56,3.608,2.344,5.656,2.344s4.096-0.784,5.656-2.344l112-112C128.787,250.448,128.787,245.392,125.659,242.264z"/><path d="M146.347,298.264l-56,56c-3.128,3.128-3.128,8.184,0,11.312c1.56,1.56,3.608,2.344,5.656,2.344     c2.048,0,4.096-0.784,5.656-2.344l56-56c3.128-3.128,3.128-8.184,0-11.312C154.531,295.136,149.475,295.136,146.347,298.264z"/><path d="M8.003,279.92c2.048,0,4.096-0.784,5.656-2.344l56-56c3.128-3.128,3.128-8.184,0-11.312     c-3.128-3.128-8.184-3.128-11.312,0l-56,56c-3.128,3.128-3.128,8.184,0,11.312C3.907,279.136,5.955,279.92,8.003,279.92z"/></g><g transform="matrix(0.1171875 0 0 0.1171875 215 175)" id="L1_223"><path d="m268.892 281.541h-205.32c-4.142 0-7.5 3.357-7.5 7.5s3.358 7.5 7.5 7.5h205.319c4.143 0 7.5-3.358 7.5-7.5.001-4.143-3.357-7.5-7.499-7.5z"/><path d="m268.892 328.871h-205.32c-4.142 0-7.5 3.357-7.5 7.5s3.358 7.5 7.5 7.5h205.319c4.143 0 7.5-3.357 7.5-7.5.001-4.143-3.357-7.5-7.499-7.5z"/><path d="m166.232 376.201h-102.66c-4.142 0-7.5 3.358-7.5 7.5 0 4.143 3.358 7.5 7.5 7.5h102.66c4.142 0 7.5-3.357 7.5-7.5s-3.358-7.5-7.5-7.5z"/><path d="m466.209 186.88h-205.32c-4.142 0-7.5 3.357-7.5 7.5s3.358 7.5 7.5 7.5h205.32c4.143 0 7.5-3.357 7.5-7.5s-3.357-7.5-7.5-7.5z"/><path d="m466.209 234.21h-102.66c-4.143 0-7.5 3.357-7.5 7.5s3.357 7.5 7.5 7.5h102.66c4.143 0 7.5-3.357 7.5-7.5s-3.357-7.5-7.5-7.5z"/><path d="m46.45 57.269h150.003c4.142 0 7.5-3.357 7.5-7.5s-3.358-7.5-7.5-7.5h-150.003c-4.142 0-7.5 3.357-7.5 7.5s3.358 7.5 7.5 7.5z"/><path d="m46.45 94.767h75.001c4.142 0 7.5-3.357 7.5-7.5s-3.358-7.5-7.5-7.5h-75.001c-4.142 0-7.5 3.357-7.5 7.5s3.358 7.5 7.5 7.5z"/><path d="m284.041 225.624h-235.619c-26.691 0-48.407 21.715-48.407 48.407v121.698c0 26.692 21.715 48.407 48.407 48.407h1.691l-9.693 53.819c-.916 5.087 1.525 10.155 6.074 12.609 4.605 2.484 10.172 1.668 13.873-1.847l66.367-62.999c1.075-1.021 2.482-1.582 3.964-1.582h153.342c26.692 0 48.407-21.715 48.407-48.407v-121.698c.002-26.692-21.714-48.407-48.406-48.407zm33.407 170.105c0 18.42-14.987 33.407-33.407 33.407h-153.342c-5.342 0-10.417 2.025-14.292 5.703l-59.561 56.538 8.416-46.727c1.457-8.089-4.764-15.515-12.97-15.515h-3.87c-18.42 0-33.406-14.987-33.406-33.407v-121.697c0-18.42 14.986-33.407 33.406-33.407h235.619c18.42 0 33.407 14.987 33.407 33.407z"/><path d="m29.436 133.41h55.94c.115 0 .222.062.279.16l23.893 41.25c2.488 4.297 6.939 6.862 11.904 6.862 4.966 0 9.416-2.565 11.905-6.862l23.892-41.249c.058-.1.165-.161.28-.161h55.939c16.01 0 29.034-13.025 29.034-29.035v-75.341c-.001-16.009-13.025-29.034-29.035-29.034h-184.031c-16.009 0-29.034 13.025-29.034 29.034v3.169c0 4.143 3.358 7.5 7.5 7.5s7.5-3.357 7.5-7.5v-3.169c.001-7.739 6.296-14.034 14.034-14.034h184.031c7.738 0 14.034 6.295 14.034 14.033v75.341c0 7.738-6.296 14.034-14.034 14.034h-55.939c-5.448 0-10.529 2.929-13.26 7.643l-22.817 39.392-22.816-39.392c-2.731-4.714-7.811-7.643-13.26-7.643h-55.94c-7.738 0-14.033-6.296-14.033-14.034v-37.111c0-4.143-3.358-7.5-7.5-7.5s-7.5 3.357-7.5 7.5v37.112c0 16.01 13.025 29.035 29.034 29.035z"/><path d="m468.16 140.754h-209.223c-24.165 0-43.824 19.66-43.824 43.824v13.486c0 4.143 3.358 7.5 7.5 7.5s7.5-3.357 7.5-7.5v-13.486c0-15.894 12.93-28.824 28.823-28.824h209.224c15.894 0 28.824 12.93 28.824 28.824v106.649c0 15.894-12.93 28.824-28.824 28.824h-3.437c-7.824 0-13.728 7.079-12.344 14.765l7.018 38.969-51.027-48.438c-3.596-3.415-8.309-5.296-13.27-5.296h-35.091c-4.143 0-7.5 3.357-7.5 7.5s3.357 7.5 7.5 7.5h35.091c1.1 0 2.145.417 2.942 1.174l58.931 55.942c3.584 3.401 8.929 4.129 13.298 1.769 4.36-2.353 6.698-7.21 5.819-12.084l-8.428-46.8h.497c24.165 0 43.824-19.66 43.824-43.824v-106.65c.001-24.165-19.658-43.824-43.823-43.824z"/></g><g transform="matrix(0.1171875 0 0 0.1171875 7 291)" id="L1_224"><path d="M407.815,0h-303.63c-21.38,0-41.736,6.707-58.87,19.394c-3.341,2.474-4.044,7.188-1.57,10.529s7.188,4.042,10.529,1.57    c14.522-10.754,31.781-16.439,49.911-16.439h303.629c46.296,0,83.96,37.665,83.96,83.96v199.144    c0,46.296-37.665,83.96-83.96,83.96H279.48c-3.101,0-6.097,1.296-8.217,3.553l-103.068,109.59    c-2.225,2.364-4.805,1.693-5.81,1.296c-1.006-0.398-3.345-1.676-3.345-4.924V393.4c0-6.22-5.06-11.28-11.28-11.28h-43.575    c-46.296,0-83.961-37.665-83.961-83.96V99.014c0-17.032,5.069-33.429,14.66-47.417c2.35-3.429,1.477-8.113-1.951-10.464    c-3.427-2.351-8.114-1.476-10.464,1.951C11.153,59.59,5.171,78.93,5.171,99.014v199.144c0,54.596,44.418,99.014,99.015,99.014    h39.801v94.461c0,8.398,5.044,15.824,12.851,18.918c2.461,0.975,5.017,1.449,7.543,1.449c5.489,0,10.84-2.237,14.78-6.425    l101.95-108.402h126.704c54.596,0,99.014-44.418,99.014-99.014V99.014C506.829,44.418,462.412,0,407.815,0z"/><path d="M364.119,120.935c-26.124-26.125-68.635-26.123-94.761,0l-13.119,13.12c-0.035,0.035-0.143,0.143-0.344,0.143    c-0.2,0-0.307-0.106-0.342-0.143l-12.911-12.91c-26.125-26.125-68.635-26.124-94.76,0c-26.125,26.125-26.125,68.636,0,94.761    l97.035,97.035c2.935,2.935,6.837,4.551,10.987,4.551s8.053-1.617,10.987-4.552l53.325-53.334c2.94-2.94,2.94-7.706-0.001-10.644    c-2.94-2.939-7.707-2.94-10.644,0.001l-53.325,53.334c-0.035,0.035-0.143,0.141-0.342,0.141c-0.201,0-0.308-0.106-0.343-0.143    l-97.035-97.035c-20.256-20.257-20.256-53.215,0-73.472s53.215-20.255,73.471,0l12.91,12.91c2.935,2.935,6.837,4.552,10.987,4.552    c4.151,0,8.052-1.616,10.988-4.551l13.12-13.12c20.26-20.255,53.216-20.255,73.472,0c20.256,20.256,20.256,53.214,0,73.472    l-22.472,22.477c-2.94,2.94-2.94,7.706,0.001,10.644c2.94,2.939,7.706,2.94,10.644-0.001l22.473-22.476    C390.244,189.57,390.244,147.06,364.119,120.935z"/></g></defs><g fi:class="KUsePattern" opacity="0.4"><pattern id="pattern_L1_216" width="350" height="350" patternUnits="userSpaceOnUse"><use xlink:href="#L1_216" x="-350" y="-350"/><use xlink:href="#L1_216" x="0" y="-350"/><use xlink:href="#L1_216" x="350" y="-350"/><use xlink:href="#L1_216" x="-350" y="0"/><use xlink:href="#L1_216" x="0" y="0"/><use xlink:href="#L1_216" x="350" y="0"/><use xlink:href="#L1_216" x="-350" y="350"/><use xlink:href="#L1_216" x="0" y="350"/><use xlink:href="#L1_216" x="350" y="350"/></pattern><rect x="0" y="0" width="100%" height="100%" fill="url(#pattern_L1_216)"/></g><g fi:class="KUsePattern" opacity="0.4"><pattern id="pattern_L1_217" width="350" height="350" patternUnits="userSpaceOnUse"><use xlink:href="#L1_217" x="-350" y="-350"/><use xlink:href="#L1_217" x="0" y="-350"/><use xlink:href="#L1_217" x="350" y="-350"/><use xlink:href="#L1_217" x="-350" y="0"/><use xlink:href="#L1_217" x="0" y="0"/><use xlink:href="#L1_217" x="350" y="0"/><use xlink:href="#L1_217" x="-350" y="350"/><use xlink:href="#L1_217" x="0" y="350"/><use xlink:href="#L1_217" x="350" y="350"/></pattern><rect x="0" y="0" width="100%" height="100%" fill="url(#pattern_L1_217)"/></g><g fi:class="KUsePattern" opacity="0.4"><pattern id="pattern_L1_222" width="350" height="350" patternUnits="userSpaceOnUse"><use xlink:href="#L1_222" x="-350" y="-350"/><use xlink:href="#L1_222" x="0" y="-350"/><use xlink:href="#L1_222" x="350" y="-350"/><use xlink:href="#L1_222" x="-350" y="0"/><use xlink:href="#L1_222" x="0" y="0"/><use xlink:href="#L1_222" x="350" y="0"/><use xlink:href="#L1_222" x="-350" y="350"/><use xlink:href="#L1_222" x="0" y="350"/><use xlink:href="#L1_222" x="350" y="350"/></pattern><rect x="0" y="0" width="100%" height="100%" fill="url(#pattern_L1_222)"/></g><g fi:class="KUsePattern" opacity="0.4"><pattern id="pattern_L1_219" width="350" height="350" patternUnits="userSpaceOnUse"><use xlink:href="#L1_219" x="-350" y="-350"/><use xlink:href="#L1_219" x="0" y="-350"/><use xlink:href="#L1_219" x="350" y="-350"/><use xlink:href="#L1_219" x="-350" y="0"/><use xlink:href="#L1_219" x="0" y="0"/><use xlink:href="#L1_219" x="350" y="0"/><use xlink:href="#L1_219" x="-350" y="350"/><use xlink:href="#L1_219" x="0" y="350"/><use xlink:href="#L1_219" x="350" y="350"/></pattern><rect x="0" y="0" width="100%" height="100%" fill="url(#pattern_L1_219)"/></g><g fi:class="KUsePattern" opacity="0.3"><pattern id="pattern_L1_224" width="350" height="350" patternUnits="userSpaceOnUse"><use xlink:href="#L1_224" x="-350" y="-350"/><use xlink:href="#L1_224" x="0" y="-350"/><use xlink:href="#L1_224" x="350" y="-350"/><use xlink:href="#L1_224" x="-350" y="0"/><use xlink:href="#L1_224" x="0" y="0"/><use xlink:href="#L1_224" x="350" y="0"/><use xlink:href="#L1_224" x="-350" y="350"/><use xlink:href="#L1_224" x="0" y="350"/><use xlink:href="#L1_224" x="350" y="350"/></pattern><rect x="0" y="0" width="100%" height="100%" fill="url(#pattern_L1_224)"/></g><g fi:class="KUsePattern" opacity="0.3"><pattern id="pattern_L1_220" width="350" height="350" patternUnits="userSpaceOnUse"><use xlink:href="#L1_220" x="-350" y="-350"/><use xlink:href="#L1_220" x="0" y="-350"/><use xlink:href="#L1_220" x="350" y="-350"/><use xlink:href="#L1_220" x="-350" y="0"/><use xlink:href="#L1_220" x="0" y="0"/><use xlink:href="#L1_220" x="350" y="0"/><use xlink:href="#L1_220" x="-350" y="350"/><use xlink:href="#L1_220" x="0" y="350"/><use xlink:href="#L1_220" x="350" y="350"/></pattern><rect x="0" y="0" width="100%" height="100%" fill="url(#pattern_L1_220)"/></g><g fi:class="KUsePattern" opacity="0.3"><pattern id="pattern_L1_223" width="350" height="350" patternUnits="userSpaceOnUse"><use xlink:href="#L1_223" x="-350" y="-350"/><use xlink:href="#L1_223" x="0" y="-350"/><use xlink:href="#L1_223" x="350" y="-350"/><use xlink:href="#L1_223" x="-350" y="0"/><use xlink:href="#L1_223" x="0" y="0"/><use xlink:href="#L1_223" x="350" y="0"/><use xlink:href="#L1_223" x="-350" y="350"/><use xlink:href="#L1_223" x="0" y="350"/><use xlink:href="#L1_223" x="350" y="350"/></pattern><rect x="0" y="0" width="100%" height="100%" fill="url(#pattern_L1_223)"/></g></svg>