<svg x="0" y="0" width="1920" height="1080" viewBox="0 0 2488.8888888888887 1400" xmlns="http://www.w3.org/2000/svg" xmlns:xlink="http://www.w3.org/1999/xlink" xmlns:fi="http://pattern.flaticon.com/"><rect x="0px" y="0px" width="100%" height="100%" opacity="1" fill="#ffffff"/><defs><g transform="matrix(0.1171877309679985 0 0 0.1171877309679985 298 46.000003814697266)" id="L1_15"><path d="M412.41,0H99.589C47.531,0,5.332,42.201,5.332,94.257v205.172c0,52.057,42.201,94.257,94.257,94.257  h44.894c2.136,0,3.867,1.731,3.867,3.867v101.207c0,11.966,14.637,17.768,22.834,9.05l106.188-112.906  c0.731-0.778,1.751-1.218,2.818-1.218h132.22c52.057,0,94.257-42.201,94.257-94.257V94.257C506.667,42.201,464.466,0,412.41,0z" fill="#ec5569"/><path d="M188.005,358.509c0-2.249-1.676-4.072-3.744-4.072h-43.462c-50.396,0-91.25-44.439-91.25-99.257  V39.123c0-9.276,1.174-18.253,3.361-26.77C24.489,28.587,5.332,59.184,5.332,94.257v205.172c0,52.056,42.201,94.257,94.257,94.257  h44.894c2.136,0,3.867,1.732,3.867,3.867v101.207c0,11.966,14.637,17.768,22.834,9.05l16.82-17.885V358.509H188.005z" fill="#e63950"/><path d="M361.908,122.325L361.908,122.325c-23.931-23.931-62.731-23.931-86.663,0l-13.518,13.518  c-3.223,3.223-8.45,3.223-11.673,0l-13.302-13.302c-23.931-23.931-62.731-23.931-86.663,0l0,0  c-23.931,23.931-23.931,62.731,0,86.663l99.973,99.973c3.223,3.223,8.45,3.223,11.673,0l100.172-100.189  C385.839,185.056,385.839,146.257,361.908,122.325z" fill="#ec5569"/><path d="M361.908,122.325L361.908,122.325c-23.931-23.931-62.731-23.931-86.663,0l-13.518,13.518  c-3.223,3.223-8.45,3.223-11.673,0l-13.302-13.302c-23.931-23.931-62.731-23.931-86.663,0l0,0  c-23.931,23.931-23.931,62.731,0,86.663l99.973,99.973c3.223,3.223,8.45,3.223,11.673,0l100.172-100.189  C385.839,185.056,385.839,146.257,361.908,122.325z" fill="#fff5f5"/><path d="M182.145,209.204c-23.931-23.931-23.931-62.731,0-86.663l0,0c7.85-7.85,17.304-13.108,27.303-15.807  c-20.486-5.532-43.278-0.274-59.358,15.807l0,0c-23.931,23.931-23.931,62.731,0,86.663l99.973,99.973  c3.223,3.223,8.45,3.223,11.673,0l10.19-10.192L182.145,209.204z" fill="#dce6eb"/></g><g transform="matrix(0.1171877309679985 0 0 0.1171877309679985 135 216)" id="L1_16"><path d="M412.41,0H99.589C47.531,0,5.332,42.201,5.332,94.257v205.172c0,52.057,42.201,94.257,94.257,94.257  h44.894c2.136,0,3.867,1.731,3.867,3.867v101.207c0,11.966,14.637,17.768,22.834,9.05l106.188-112.906  c0.731-0.778,1.751-1.218,2.818-1.218h132.22c52.057,0,94.257-42.201,94.257-94.257V94.257C506.667,42.201,464.466,0,412.41,0z" fill="#ec5569"/><path d="M188.005,358.509c0-2.249-1.676-4.072-3.744-4.072h-43.462c-50.396,0-91.25-44.439-91.25-99.257  V39.123c0-9.276,1.174-18.253,3.361-26.77C24.489,28.587,5.332,59.184,5.332,94.257v205.172c0,52.056,42.201,94.257,94.257,94.257  h44.894c2.136,0,3.867,1.732,3.867,3.867v101.207c0,11.966,14.637,17.768,22.834,9.05l16.82-17.885V358.509H188.005z" fill="#e63950"/><path d="M361.908,122.325L361.908,122.325c-23.931-23.931-62.731-23.931-86.663,0l-13.518,13.518  c-3.223,3.223-8.45,3.223-11.673,0l-13.302-13.302c-23.931-23.931-62.731-23.931-86.663,0l0,0  c-23.931,23.931-23.931,62.731,0,86.663l99.973,99.973c3.223,3.223,8.45,3.223,11.673,0l100.172-100.189  C385.839,185.056,385.839,146.257,361.908,122.325z" fill="#ec5569"/><path d="M361.908,122.325L361.908,122.325c-23.931-23.931-62.731-23.931-86.663,0l-13.518,13.518  c-3.223,3.223-8.45,3.223-11.673,0l-13.302-13.302c-23.931-23.931-62.731-23.931-86.663,0l0,0  c-23.931,23.931-23.931,62.731,0,86.663l99.973,99.973c3.223,3.223,8.45,3.223,11.673,0l100.172-100.189  C385.839,185.056,385.839,146.257,361.908,122.325z" fill="#fff5f5"/><path d="M182.145,209.204c-23.931-23.931-23.931-62.731,0-86.663l0,0c7.85-7.85,17.304-13.108,27.303-15.807  c-20.486-5.532-43.278-0.274-59.358,15.807l0,0c-23.931,23.931-23.931,62.731,0,86.663l99.973,99.973  c3.223,3.223,8.45,3.223,11.673,0l10.19-10.192L182.145,209.204z" fill="#dce6eb"/></g><g transform="matrix(1.034482717514038 0 0 1.034482717514038 220 254)" id="L1_17"><path d="M48,19.929v21.141C48,43.793,45.793,46,43.071,46H22L12,57V46H4.929C2.207,46,0,43.793,0,41.071   l0-21.141C0,17.207,2.207,15,4.929,15h38.141C45.793,15,48,17.207,48,19.929z" fill="#0391fd"/><path d="M53.071,1H14.929C12.207,1,10,3.207,10,5.93V15h33.071C45.793,15,48,17.207,48,19.93V32h5.071   C55.793,32,58,29.793,58,27.07V5.93C58,3.207,55.793,1,53.071,1z" fill="#0f71d3"/><path d="M25,26.015H11c-0.553,0-1-0.448-1-1s0.447-1,1-1h14c0.553,0,1,0.448,1,1S25.553,26.015,25,26.015z" fill="#ffffff"/><path d="M38,32.015H11c-0.553,0-1-0.448-1-1s0.447-1,1-1h27c0.553,0,1,0.448,1,1S38.553,32.015,38,32.015z" fill="#ffffff"/><path d="M38,38.015H11c-0.553,0-1-0.448-1-1s0.447-1,1-1h27c0.553,0,1,0.448,1,1S38.553,38.015,38,38.015z" fill="#ffffff"/></g><g transform="matrix(1.034482717514038 0 0 1.034482717514038 50 153)" id="L1_18"><path d="M48,19.929v21.141C48,43.793,45.793,46,43.071,46H22L12,57V46H4.929C2.207,46,0,43.793,0,41.071   l0-21.141C0,17.207,2.207,15,4.929,15h38.141C45.793,15,48,17.207,48,19.929z" fill="#0391fd"/><path d="M53.071,1H14.929C12.207,1,10,3.207,10,5.93V15h33.071C45.793,15,48,17.207,48,19.93V32h5.071   C55.793,32,58,29.793,58,27.07V5.93C58,3.207,55.793,1,53.071,1z" fill="#0f71d3"/><path d="M25,26.015H11c-0.553,0-1-0.448-1-1s0.447-1,1-1h14c0.553,0,1,0.448,1,1S25.553,26.015,25,26.015z" fill="#ffffff"/><path d="M38,32.015H11c-0.553,0-1-0.448-1-1s0.447-1,1-1h27c0.553,0,1,0.448,1,1S38.553,32.015,38,32.015z" fill="#ffffff"/><path d="M38,38.015H11c-0.553,0-1-0.448-1-1s0.447-1,1-1h27c0.553,0,1,0.448,1,1S38.553,38.015,38,38.015z" fill="#ffffff"/></g><g transform="matrix(0.1190185695886612 0 0 0.1190185695886612 166 127)" id="L1_19"><path d="M232.369,313.888c0-52.775-51.988-95.311-116.185-95.311S0,261.112,0,313.888  s51.988,93.735,116.185,93.735c5.514,0,11.028-0.394,16.542-1.182c24.025,18.905,48.443,25.206,48.837,24.812  c-8.665-8.665-13.785-20.086-16.935-30.72C204.8,385.174,232.369,352.485,232.369,313.888z" fill="#efc75e"/><path d="M137.846,297.346c-8.665,0-15.754,7.089-15.754,15.754s7.089,15.754,15.754,15.754  S153.6,321.765,153.6,313.1C153.6,304.435,146.511,297.346,137.846,297.346z M86.646,297.346c-8.665,0-15.754,7.089-15.754,15.754  s7.089,15.754,15.754,15.754S102.4,321.765,102.4,313.1S95.311,297.346,86.646,297.346z" fill="#faeecf"/><path d="M334.769,348.94c-8.665,0-17.329-0.394-25.6-1.575c-33.871,25.206-66.954,33.477-67.348,32.689  c11.422-11.815,18.905-26.782,23.631-41.748c-59.077-21.662-100.037-70.105-100.037-126.425c0-76.8,76.012-139.028,169.354-139.028  s169.354,62.228,169.354,139.028S428.111,348.94,334.769,348.94z" fill="#26a6d1"/><path d="M334.769,187.069c-12.997,0-23.631,10.634-23.631,23.631s10.634,23.631,23.631,23.631  S358.4,223.697,358.4,210.7S347.766,187.069,334.769,187.069z M405.662,187.069c-12.997,0-23.631,10.634-23.631,23.631  s10.634,23.631,23.631,23.631s23.631-10.634,23.631-23.631S418.658,187.069,405.662,187.069z M263.877,187.069  c-12.997,0-23.631,10.634-23.631,23.631s10.634,23.631,23.631,23.631c12.997,0,23.631-10.634,23.631-23.631  S276.874,187.069,263.877,187.069z" fill="#ffffff"/><path d="M280.812,330.429c-58.683-21.662-99.643-70.105-99.643-126.425  c0-47.655,29.145-89.403,73.649-114.609c-53.169,23.237-89.403,69.317-89.403,122.486c0,56.32,40.96,104.763,99.643,126.425  c-4.726,14.572-11.815,29.538-23.631,41.748C241.822,380.448,267.028,361.937,280.812,330.429z" fill="#2295bc"/><path d="M15.754,313.888c0-50.412,47.655-91.766,108.308-94.917l-7.877-0.394  C51.988,218.577,0,261.112,0,313.888s51.988,93.735,116.185,93.735c2.363,0,4.726,0,7.483-0.394  C63.409,403.685,15.754,364.3,15.754,313.888z" fill="#dcb757"/></g><g transform="matrix(0.11718521267175674 0 0 0.11718521267175674 58 14)" id="L1_20"><path d="m351.001 191.998c0 99.592-83.368 179.336-183 174.82-23.34-1.03-45.76-6.59-66.81-16.57l-83.28 16.46c-4.589.947-9.79-.385-13.53-4.12-3.54-3.54-5.07-8.62-4.09-13.53l16.45-82.27c-11.11-23.43-16.74-48.57-16.74-74.79 0-96.587 79.043-175 176-175 96.51 0 175 78.497 175 175z" fill="#ffe278"/><path d="m351.001 191.998c0 99.592-83.368 179.336-183 174.82v-349.64c99.532-4.512 183 75.122 183 174.82z" fill="#ffb454"/><path d="m511.711 477.058c2.121 10.628-7.376 19.764-17.62 17.65l-83.28-16.46c-23.44 11.12-48.58 16.75-74.81 16.75-96.5 0-175-78.5-175-175 0-96.511 78.497-175 175-175 97.05 0 176 78.5 176 175 0 26.22-5.63 51.36-16.74 74.79z" fill="#dd5958"/><path d="m511.711 477.058c2.121 10.628-7.376 19.764-17.62 17.65l-83.28-16.46c-23.44 11.12-48.58 16.75-74.81 16.75v-350c97.05 0 176 78.5 176 175 0 26.22-5.63 51.36-16.74 74.79z" fill="#d8225b"/></g><g transform="matrix(0.11718658357858658 0 0 0.11718658357858658 185 15.999998092651367)" id="L1_21"><path d="m511.35 52.881-122 400c-3.044 9.919-14.974 13.828-23.29 7.67-7.717-5.727-203.749-151.217-214.37-159.1l-142.1-54.96c-5.79-2.24-9.6-7.81-9.59-14.02.01-6.21 3.85-11.77 9.65-13.98l482-184c5.824-2.232 12.488-.626 16.67 4.17 3.37 3.87 4.55 9.24 3.03 14.22z" fill="#94dfda"/><path d="m511.35 52.881-122 400c-3.044 9.919-14.974 13.828-23.29 7.67l-190.05-141.05 332.31-280.84c3.37 3.87 4.55 9.24 3.03 14.22z" fill="#61a7c5"/><path d="m507.89 58.821-271.49 286.4-63 125.03c-3.16 6.246-10.188 9.453-16.87 7.84-6.76-1.6-11.53-7.64-11.53-14.59v-175.3c0-4.86 2.35-9.41 6.31-12.23l337-239.69c6.29-4.48 14.95-3.45 20.01 2.38 5.07 5.83 4.88 14.56-.43 20.16z" fill="#eef4ff"/><path d="m507.89 58.821-271.49 286.4-63 125.03c-3.16 6.246-10.188 9.453-16.87 7.84-6.76-1.6-11.53-7.64-11.53-14.59l31.01-144 332.31-280.84c5.07 5.83 4.88 14.56-.43 20.16z" fill="#d9e6fc"/></g><g transform="matrix(-0.12072434276342392 0 0 0.12072434276342392 33 248)" id="L1_22"><path d="m115.693 438.678 74.647-68.935 74.647-12.265 232.013-299.156-190.653 60.857-190.654 49.825-34.434 77.627 43.04 59.391z" fill="#eaeaea"/><path d="m497 58.322-415.741 188.309-68.137-41.103c-21.142-12.758-15.622-44.831 8.57-49.794z" fill="#eaeaea"/><path d="m264.987 357.478-149.294 81.2 55.369-137.87z" fill="#d8d8d8"/><path d="m497 58.322-122.926 327.501c-5.958 15.884-24.869 22.454-39.398 13.697l-69.689-42.043-93.925-56.67z" fill="#eaeaea"/><path d="m497 58.322-325.938 242.486-55.369 137.87-34.434-192.047z" fill="#e2e2e2"/></g><g transform="matrix(0.11901408433914185 0 0 0.11901408433914185 272 146)" id="L1_25"><path d="M176.797,411.547l99.446-66.298" fill="#eb7a0c"/><g><path d="M210.371,302.432 176.797,411.547 276.243,345.247z" fill="#a4c2f7"/><path d="M210.371,302.432 177.334,411.547 151.617,268.858 495.748,92.596z" fill="#a4c2f7"/><path d="M487.705,107.971c-3.004,0.098-5.814-1.481-7.293-4.098L210.371,302.432L378.24,411.547    l112.037-304.098C489.45,107.75,488.583,107.926,487.705,107.971z" fill="#a4c2f7"/></g><path d="M445.387,126.17 210.371,302.432 361.453,394.76 462.174,117.776z" fill="#e3e7f2"/><path d="M468.41,98.245L8.394,193.317l143.222,75.541l323.041-165.461   C471.805,102.919,469.423,100.955,468.41,98.245z" fill="#ffffff"/><path d="M445.387,117.776L34.109,210.104l117.508,58.754l300.017-145.93   C448.781,122.449,446.4,120.486,445.387,117.776z" fill="#e3e7f2"/><g><path d="M378.24,419.94c-1.623,0.001-3.212-0.469-4.574-1.352L205.797,309.473    c-2.312-1.501-3.74-4.041-3.82-6.796c-0.08-2.755,1.197-5.374,3.418-7.007l201.385-148.074l-251.336,128.73    c-2.434,1.249-5.325,1.234-7.746-0.041L4.477,200.743c-3.134-1.654-4.892-5.097-4.394-8.605c0.498-3.508,3.145-6.326,6.615-7.042    L493.895,84.407c3.357-0.756,6.835,0.612,8.779,3.451c0.177,0.251,0.336,0.514,0.475,0.787c0.785,1.46,1.116,3.121,0.951,4.771    c-0.04,0.435-0.117,0.865-0.23,1.287c-0.076,0.3-0.169,0.596-0.279,0.885L386.117,414.448    C384.904,417.75,381.758,419.944,378.24,419.94z M225.117,302.006l148.885,96.771l104.213-282.869L225.117,302.006z M32.994,196.8    l118.68,62.598L436.83,113.342L32.994,196.8z" fill="#428dff"/><path d="M176.805,419.94c-3.7,0.003-6.966-2.417-8.04-5.957c-1.074-3.541,0.297-7.367,3.376-9.42    l99.443-66.295c2.495-1.689,5.704-1.911,8.408-0.582c2.704,1.329,4.488,4.005,4.675,7.012c0.187,3.007-1.253,5.884-3.771,7.537    l-99.443,66.295C180.077,419.448,178.46,419.939,176.805,419.94L176.805,419.94z" fill="#428dff"/><path d="M177.33,419.94c-0.156,0-0.32-0.008-0.484-0.017c-3.873-0.222-7.089-3.068-7.779-6.885    l-25.713-142.689c-0.656-3.637,1.145-7.275,4.435-8.959L491.92,85.128c3.893-1.994,8.664-0.665,10.965,3.054    c2.301,3.719,1.36,8.582-2.162,11.175L217.592,307.538l-32.229,106.442C184.292,417.521,181.028,419.942,177.33,419.94    L177.33,419.94z M160.977,273.489l18.426,102.246l22.935-75.737c0.524-1.735,1.597-3.254,3.057-4.328l201.385-148.074    L160.977,273.489z" fill="#428dff"/><path d="M176.797,419.94c-2.664,0-5.169-1.264-6.752-3.406c-1.583-2.142-2.055-4.909-1.273-7.455    l33.574-109.115c0.774-2.518,2.684-4.526,5.16-5.425c2.476-0.899,5.23-0.584,7.439,0.851l65.869,42.82    c2.368,1.539,3.803,4.166,3.82,6.99c0.017,2.824-1.388,5.467-3.738,7.034l-99.443,66.295    C180.075,419.451,178.454,419.942,176.797,419.94z M215.125,315.53l-23.377,75.959l69.229-46.147L215.125,315.53z" fill="#428dff"/></g></g><g transform="matrix(0.11901408433914185 0 0 0.11901408433914185 62.999996185302734 280)" id="L1_26"><path d="M176.797,411.547l99.446-66.298" fill="#eb7a0c"/><g><path d="M210.371,302.432 176.797,411.547 276.243,345.247z" fill="#a4c2f7"/><path d="M210.371,302.432 177.334,411.547 151.617,268.858 495.748,92.596z" fill="#a4c2f7"/><path d="M487.705,107.971c-3.004,0.098-5.814-1.481-7.293-4.098L210.371,302.432L378.24,411.547    l112.037-304.098C489.45,107.75,488.583,107.926,487.705,107.971z" fill="#a4c2f7"/></g><path d="M445.387,126.17 210.371,302.432 361.453,394.76 462.174,117.776z" fill="#e3e7f2"/><path d="M468.41,98.245L8.394,193.317l143.222,75.541l323.041-165.461   C471.805,102.919,469.423,100.955,468.41,98.245z" fill="#ffffff"/><path d="M445.387,117.776L34.109,210.104l117.508,58.754l300.017-145.93   C448.781,122.449,446.4,120.486,445.387,117.776z" fill="#e3e7f2"/><g><path d="M378.24,419.94c-1.623,0.001-3.212-0.469-4.574-1.352L205.797,309.473    c-2.312-1.501-3.74-4.041-3.82-6.796c-0.08-2.755,1.197-5.374,3.418-7.007l201.385-148.074l-251.336,128.73    c-2.434,1.249-5.325,1.234-7.746-0.041L4.477,200.743c-3.134-1.654-4.892-5.097-4.394-8.605c0.498-3.508,3.145-6.326,6.615-7.042    L493.895,84.407c3.357-0.756,6.835,0.612,8.779,3.451c0.177,0.251,0.336,0.514,0.475,0.787c0.785,1.46,1.116,3.121,0.951,4.771    c-0.04,0.435-0.117,0.865-0.23,1.287c-0.076,0.3-0.169,0.596-0.279,0.885L386.117,414.448    C384.904,417.75,381.758,419.944,378.24,419.94z M225.117,302.006l148.885,96.771l104.213-282.869L225.117,302.006z M32.994,196.8    l118.68,62.598L436.83,113.342L32.994,196.8z" fill="#428dff"/><path d="M176.805,419.94c-3.7,0.003-6.966-2.417-8.04-5.957c-1.074-3.541,0.297-7.367,3.376-9.42    l99.443-66.295c2.495-1.689,5.704-1.911,8.408-0.582c2.704,1.329,4.488,4.005,4.675,7.012c0.187,3.007-1.253,5.884-3.771,7.537    l-99.443,66.295C180.077,419.448,178.46,419.939,176.805,419.94L176.805,419.94z" fill="#428dff"/><path d="M177.33,419.94c-0.156,0-0.32-0.008-0.484-0.017c-3.873-0.222-7.089-3.068-7.779-6.885    l-25.713-142.689c-0.656-3.637,1.145-7.275,4.435-8.959L491.92,85.128c3.893-1.994,8.664-0.665,10.965,3.054    c2.301,3.719,1.36,8.582-2.162,11.175L217.592,307.538l-32.229,106.442C184.292,417.521,181.028,419.942,177.33,419.94    L177.33,419.94z M160.977,273.489l18.426,102.246l22.935-75.737c0.524-1.735,1.597-3.254,3.057-4.328l201.385-148.074    L160.977,273.489z" fill="#428dff"/><path d="M176.797,419.94c-2.664,0-5.169-1.264-6.752-3.406c-1.583-2.142-2.055-4.909-1.273-7.455    l33.574-109.115c0.774-2.518,2.684-4.526,5.16-5.425c2.476-0.899,5.23-0.584,7.439,0.851l65.869,42.82    c2.368,1.539,3.803,4.166,3.82,6.99c0.017,2.824-1.388,5.467-3.738,7.034l-99.443,66.295    C180.075,419.451,178.454,419.942,176.797,419.94z M215.125,315.53l-23.377,75.959l69.229-46.147L215.125,315.53z" fill="#428dff"/></g></g></defs><g fi:class="KUsePattern" opacity="0.37"><pattern id="pattern_L1_15" width="350" height="350" patternUnits="userSpaceOnUse"><use xlink:href="#L1_15" x="-350" y="-350"/><use xlink:href="#L1_15" x="0" y="-350"/><use xlink:href="#L1_15" x="350" y="-350"/><use xlink:href="#L1_15" x="-350" y="0"/><use xlink:href="#L1_15" x="0" y="0"/><use xlink:href="#L1_15" x="350" y="0"/><use xlink:href="#L1_15" x="-350" y="350"/><use xlink:href="#L1_15" x="0" y="350"/><use xlink:href="#L1_15" x="350" y="350"/></pattern><rect x="0" y="0" width="100%" height="100%" fill="url(#pattern_L1_15)"/></g><g fi:class="KUsePattern" opacity="0.3"><pattern id="pattern_L1_16" width="350" height="350" patternUnits="userSpaceOnUse"><use xlink:href="#L1_16" x="-350" y="-350"/><use xlink:href="#L1_16" x="0" y="-350"/><use xlink:href="#L1_16" x="350" y="-350"/><use xlink:href="#L1_16" x="-350" y="0"/><use xlink:href="#L1_16" x="0" y="0"/><use xlink:href="#L1_16" x="350" y="0"/><use xlink:href="#L1_16" x="-350" y="350"/><use xlink:href="#L1_16" x="0" y="350"/><use xlink:href="#L1_16" x="350" y="350"/></pattern><rect x="0" y="0" width="100%" height="100%" fill="url(#pattern_L1_16)"/></g><g fi:class="KUsePattern" opacity="0.38"><pattern id="pattern_L1_17" width="350" height="350" patternUnits="userSpaceOnUse"><use xlink:href="#L1_17" x="-350" y="-350"/><use xlink:href="#L1_17" x="0" y="-350"/><use xlink:href="#L1_17" x="350" y="-350"/><use xlink:href="#L1_17" x="-350" y="0"/><use xlink:href="#L1_17" x="0" y="0"/><use xlink:href="#L1_17" x="350" y="0"/><use xlink:href="#L1_17" x="-350" y="350"/><use xlink:href="#L1_17" x="0" y="350"/><use xlink:href="#L1_17" x="350" y="350"/></pattern><rect x="0" y="0" width="100%" height="100%" fill="url(#pattern_L1_17)"/></g><g fi:class="KUsePattern" opacity="0.35"><pattern id="pattern_L1_18" width="350" height="350" patternUnits="userSpaceOnUse"><use xlink:href="#L1_18" x="-350" y="-350"/><use xlink:href="#L1_18" x="0" y="-350"/><use xlink:href="#L1_18" x="350" y="-350"/><use xlink:href="#L1_18" x="-350" y="0"/><use xlink:href="#L1_18" x="0" y="0"/><use xlink:href="#L1_18" x="350" y="0"/><use xlink:href="#L1_18" x="-350" y="350"/><use xlink:href="#L1_18" x="0" y="350"/><use xlink:href="#L1_18" x="350" y="350"/></pattern><rect x="0" y="0" width="100%" height="100%" fill="url(#pattern_L1_18)"/></g><g fi:class="KUsePattern" opacity="0.38"><pattern id="pattern_L1_19" width="350" height="350" patternUnits="userSpaceOnUse"><use xlink:href="#L1_19" x="-350" y="-350"/><use xlink:href="#L1_19" x="0" y="-350"/><use xlink:href="#L1_19" x="350" y="-350"/><use xlink:href="#L1_19" x="-350" y="0"/><use xlink:href="#L1_19" x="0" y="0"/><use xlink:href="#L1_19" x="350" y="0"/><use xlink:href="#L1_19" x="-350" y="350"/><use xlink:href="#L1_19" x="0" y="350"/><use xlink:href="#L1_19" x="350" y="350"/></pattern><rect x="0" y="0" width="100%" height="100%" fill="url(#pattern_L1_19)"/></g><g fi:class="KUsePattern" opacity="0.37"><pattern id="pattern_L1_20" width="350" height="350" patternUnits="userSpaceOnUse"><use xlink:href="#L1_20" x="-350" y="-350"/><use xlink:href="#L1_20" x="0" y="-350"/><use xlink:href="#L1_20" x="350" y="-350"/><use xlink:href="#L1_20" x="-350" y="0"/><use xlink:href="#L1_20" x="0" y="0"/><use xlink:href="#L1_20" x="350" y="0"/><use xlink:href="#L1_20" x="-350" y="350"/><use xlink:href="#L1_20" x="0" y="350"/><use xlink:href="#L1_20" x="350" y="350"/></pattern><rect x="0" y="0" width="100%" height="100%" fill="url(#pattern_L1_20)"/></g><g fi:class="KUsePattern" opacity="0.37"><pattern id="pattern_L1_21" width="350" height="350" patternUnits="userSpaceOnUse"><use xlink:href="#L1_21" x="-350" y="-350"/><use xlink:href="#L1_21" x="0" y="-350"/><use xlink:href="#L1_21" x="350" y="-350"/><use xlink:href="#L1_21" x="-350" y="0"/><use xlink:href="#L1_21" x="0" y="0"/><use xlink:href="#L1_21" x="350" y="0"/><use xlink:href="#L1_21" x="-350" y="350"/><use xlink:href="#L1_21" x="0" y="350"/><use xlink:href="#L1_21" x="350" y="350"/></pattern><rect x="0" y="0" width="100%" height="100%" fill="url(#pattern_L1_21)"/></g><g fi:class="KUsePattern" opacity="0.4"><pattern id="pattern_L1_22" width="350" height="350" patternUnits="userSpaceOnUse"><use xlink:href="#L1_22" x="-350" y="-350"/><use xlink:href="#L1_22" x="0" y="-350"/><use xlink:href="#L1_22" x="350" y="-350"/><use xlink:href="#L1_22" x="-350" y="0"/><use xlink:href="#L1_22" x="0" y="0"/><use xlink:href="#L1_22" x="350" y="0"/><use xlink:href="#L1_22" x="-350" y="350"/><use xlink:href="#L1_22" x="0" y="350"/><use xlink:href="#L1_22" x="350" y="350"/></pattern><rect x="0" y="0" width="100%" height="100%" fill="url(#pattern_L1_22)"/></g><g fi:class="KUsePattern" opacity="0.37"><pattern id="pattern_L1_25" width="350" height="350" patternUnits="userSpaceOnUse"><use xlink:href="#L1_25" x="-350" y="-350"/><use xlink:href="#L1_25" x="0" y="-350"/><use xlink:href="#L1_25" x="350" y="-350"/><use xlink:href="#L1_25" x="-350" y="0"/><use xlink:href="#L1_25" x="0" y="0"/><use xlink:href="#L1_25" x="350" y="0"/><use xlink:href="#L1_25" x="-350" y="350"/><use xlink:href="#L1_25" x="0" y="350"/><use xlink:href="#L1_25" x="350" y="350"/></pattern><rect x="0" y="0" width="100%" height="100%" fill="url(#pattern_L1_25)"/></g><g fi:class="KUsePattern" opacity="0.35"><pattern id="pattern_L1_26" width="350" height="350" patternUnits="userSpaceOnUse"><use xlink:href="#L1_26" x="-350" y="-350"/><use xlink:href="#L1_26" x="0" y="-350"/><use xlink:href="#L1_26" x="350" y="-350"/><use xlink:href="#L1_26" x="-350" y="0"/><use xlink:href="#L1_26" x="0" y="0"/><use xlink:href="#L1_26" x="350" y="0"/><use xlink:href="#L1_26" x="-350" y="350"/><use xlink:href="#L1_26" x="0" y="350"/><use xlink:href="#L1_26" x="350" y="350"/></pattern><rect x="0" y="0" width="100%" height="100%" fill="url(#pattern_L1_26)"/></g></svg>